<svg width="72" height="36" viewBox="0 0 72 36" fill="none" xmlns="http://www.w3.org/2000/svg">
<rect x="0.5" y="0.5" width="71" height="35" rx="4.5" fill="white"/>
<rect x="0.5" y="0.5" width="71" height="35" rx="4.5" stroke="#9747FF" stroke-dasharray="10 5"/>
<path d="M18.75 13.75C18.75 13.3358 18.4142 13 18 13C17.5858 13 17.25 13.3358 17.25 13.75V17.25H13.75C13.3358 17.25 13 17.5858 13 18C13 18.4142 13.3358 18.75 13.75 18.75H17.25L17.25 22.25C17.25 22.6642 17.5858 23 18 23C18.4142 23 18.75 22.6642 18.75 22.25V18.75H22.25C22.6642 18.75 23 18.4142 23 18C23 17.5858 22.6642 17.25 22.25 17.25H18.75V13.75Z" fill="#4A4A4A"/>
<path d="M54.8333 13.2777C54.8333 12.8174 54.4603 12.4443 54 12.4443C53.5398 12.4443 53.1667 12.8174 53.1667 13.2777V17.1666H49.2778C48.8176 17.1666 48.4445 17.5397 48.4445 17.9999C48.4445 18.4601 48.8176 18.8332 49.2778 18.8332H53.1667L53.1667 22.7221C53.1667 23.1824 53.5398 23.5554 54 23.5554C54.4603 23.5554 54.8333 23.1824 54.8333 22.7221V18.8332H58.7222C59.1825 18.8332 59.5556 18.4601 59.5556 17.9999C59.5556 17.5397 59.1825 17.1666 58.7222 17.1666H54.8333V13.2777Z" fill="#4A4A4A"/>
</svg>
